<svg width="16" height="16" viewBox="0 0 16 16" fill="none" xmlns="http://www.w3.org/2000/svg">
<path d="M2.94475 7.94558L5.15906 6.59775C5.53065 6.37193 5.71644 6.25901 5.8447 6.10415C6.39975 5.43392 5.91096 4.44401 5.99372 3.66461C6.0794 2.85785 6.84876 1.75443 7.62426 1.41234C7.86294 1.30705 8.13674 1.30705 8.37542 1.41234C9.15092 1.75443 9.92028 2.85785 10.0059 3.66461C10.0887 4.44401 9.59992 5.43392 10.155 6.10415C10.2832 6.25901 10.469 6.37193 10.8406 6.59775L13.0551 7.9455C13.7329 8.35799 13.9998 8.79822 13.9998 9.62636C13.9998 10.0771 13.8004 10.1979 13.3982 10.1059L9.51499 9.21746L9.34063 10.7433C9.27741 11.2966 9.2458 11.5732 9.33721 11.8266C9.5513 12.4201 10.2782 12.9061 10.7222 13.3378C10.9675 13.5763 11.2353 14.2623 10.9555 14.5743C10.7828 14.7669 10.5022 14.6105 10.3091 14.5354L8.45001 13.8123C8.2277 13.7259 8.11655 13.6826 7.99984 13.6826C7.88312 13.6826 7.77196 13.7259 7.54967 13.8123L5.69056 14.5354C5.49746 14.6105 5.21689 14.7669 5.04417 14.5743C4.7644 14.2623 5.03217 13.5763 5.27752 13.3378C5.72147 12.9061 6.44837 12.4201 6.66246 11.8266C6.75388 11.5732 6.72227 11.2966 6.65905 10.7433L6.48468 9.21746L2.60173 10.1058C2.19935 10.1979 1.99988 10.077 2 9.6261C2.00023 8.79811 2.26714 8.35803 2.94475 7.94558Z" stroke="#141B34" stroke-width="1.5" stroke-linecap="round" stroke-linejoin="round"/>
</svg>
