<svg width="16" height="16" viewBox="0 0 16 16" fill="none" xmlns="http://www.w3.org/2000/svg">
<path d="M1.3335 10.5001C1.3335 10.5001 2.53039 10 4.66683 10C8.00016 10 10.6668 12 14.6668 12" stroke="#05A4CA" stroke-opacity="0.9" stroke-width="1.5" stroke-linecap="round" stroke-linejoin="round"/>
<path d="M1.3335 14H14.6668" stroke="#05A4CA" stroke-opacity="0.9" stroke-width="1.5" stroke-linecap="round" stroke-linejoin="round"/>
<path d="M8.39618 2.15174C6.49908 2.69579 5.26597 4.56816 5.33636 6.58336C5.35098 7.00191 5.35829 7.21119 5.53714 7.30374C5.71599 7.39629 5.90162 7.26512 6.27288 7.00277L7.10059 6.41786C7.22491 6.33002 7.37248 6.2877 7.52118 6.29725L9.46531 6.42214L11.0906 5.27361C11.2149 5.18577 11.3625 5.14345 11.5112 5.153L12.5254 5.21815C12.9606 5.24611 13.1782 5.26009 13.2862 5.09255C13.3943 4.92502 13.3064 4.74389 13.1308 4.38162C12.2572 2.57993 10.3037 1.60471 8.39618 2.15174Z" stroke="#05A4CA" stroke-opacity="0.9" stroke-width="1.5" stroke-linecap="round" stroke-linejoin="round"/>
<path d="M9.66667 6.33331L11 11.3333M8.19048 1.99998L8 1.33331" stroke="#05A4CA" stroke-opacity="0.9" stroke-width="1.5" stroke-linecap="round" stroke-linejoin="round"/>
</svg>
