<svg width="16" height="16" viewBox="0 0 16 16" fill="none" xmlns="http://www.w3.org/2000/svg">
<path fill-rule="evenodd" clip-rule="evenodd" d="M7.00147 0.935216C7.30516 0.760214 7.64952 0.668091 8.00004 0.668091C8.35058 0.668091 8.69495 0.760222 8.99865 0.935238C8.99911 0.935505 8.99958 0.935772 9.00004 0.93604L13.6667 3.6027C13.9704 3.77807 14.2227 4.03022 14.3982 4.33387C14.5738 4.63752 14.6663 4.98198 14.6667 5.33271V10.6674C14.6663 11.0181 14.5738 11.3626 14.3982 11.6662C14.2227 11.9699 13.9704 12.222 13.6667 12.3974L13.6641 12.3989L9.00004 15.0641C8.99964 15.0643 8.99924 15.0645 8.99884 15.0648C8.6951 15.2399 8.35065 15.332 8.00004 15.332C7.64944 15.332 7.30501 15.2399 7.00127 15.0648C7.00086 15.0645 7.00045 15.0643 7.00004 15.0641L2.33595 12.3989L2.33337 12.3974C2.02964 12.222 1.77735 11.9699 1.60184 11.6662C1.42632 11.3626 1.33373 11.0181 1.33337 10.6674V5.33271C1.33373 4.98198 1.42632 4.63752 1.60184 4.33387C1.77735 4.03022 2.02964 3.77807 2.33337 3.60271L2.33594 3.60122L7.00147 0.935216ZM8.00004 2.00142C7.88302 2.00142 7.76805 2.03223 7.66671 2.09074L7.66414 2.09222L3.00004 4.75741C2.99969 4.75761 2.99934 4.75781 2.99899 4.75802C2.89821 4.81644 2.8145 4.90026 2.75619 5.00113C2.69774 5.10226 2.66688 5.21698 2.66671 5.33379V10.6663C2.66688 10.7831 2.69774 10.8979 2.75619 10.999C2.8145 11.0999 2.89821 11.1837 2.99899 11.2421C2.99934 11.2423 2.99969 11.2425 3.00004 11.2427L7.66671 13.9094C7.76805 13.9679 7.88302 13.9987 8.00004 13.9987C8.11706 13.9987 8.23203 13.9679 8.33337 13.9094L8.33595 13.9079L13 11.2427C13.0004 11.2425 13.0007 11.2423 13.0011 11.2421C13.1019 11.1837 13.1856 11.0998 13.2439 10.999C13.3024 10.8978 13.3333 10.7829 13.3334 10.666V5.33407C13.3333 5.21716 13.3024 5.10234 13.2439 5.00113C13.1856 4.90027 13.1019 4.81645 13.0011 4.75802C13.0007 4.75781 13.0004 4.75761 13 4.75741L8.33337 2.09075C8.23202 2.03223 8.11706 2.00142 8.00004 2.00142Z" fill="#001B27"/>
<path fill-rule="evenodd" clip-rule="evenodd" d="M1.61522 4.33476C1.79852 4.01544 2.20598 3.90518 2.52529 4.08848L8.00006 7.23129L13.4748 4.08848C13.7941 3.90518 14.2016 4.01544 14.3849 4.33475C14.5682 4.65407 14.4579 5.06153 14.1386 5.24483L8.33196 8.57817C8.12642 8.69616 7.87369 8.69616 7.66816 8.57817L1.86149 5.24483C1.54217 5.06153 1.43191 4.65407 1.61522 4.33476Z" fill="#001B27"/>
<path fill-rule="evenodd" clip-rule="evenodd" d="M8.00004 7.33337C8.36823 7.33337 8.66671 7.63185 8.66671 8.00004V14.6667C8.66671 15.0349 8.36823 15.3334 8.00004 15.3334C7.63185 15.3334 7.33337 15.0349 7.33337 14.6667V8.00004C7.33337 7.63185 7.63185 7.33337 8.00004 7.33337Z" fill="#001B27"/>
</svg>
