<svg width="17" height="16" viewBox="0 0 17 16" fill="none" xmlns="http://www.w3.org/2000/svg">
<path fill-rule="evenodd" clip-rule="evenodd" d="M3.66333 3.33333C3.29514 3.33333 2.99666 3.63181 2.99666 4V13.3333C2.99666 13.7015 3.29514 14 3.66333 14H12.9967C13.3649 14 13.6633 13.7015 13.6633 13.3333V4C13.6633 3.63181 13.3649 3.33333 12.9967 3.33333H3.66333ZM1.66333 4C1.66333 2.89543 2.55876 2 3.66333 2H12.9967C14.1012 2 14.9967 2.89543 14.9967 4V13.3333C14.9967 14.4379 14.1012 15.3333 12.9967 15.3333H3.66333C2.55876 15.3333 1.66333 14.4379 1.66333 13.3333V4Z" fill="#52656E"/>
<path fill-rule="evenodd" clip-rule="evenodd" d="M10.9966 0.666748C11.3648 0.666748 11.6633 0.965225 11.6633 1.33341V4.00008C11.6633 4.36827 11.3648 4.66675 10.9966 4.66675C10.6284 4.66675 10.33 4.36827 10.33 4.00008V1.33341C10.33 0.965225 10.6284 0.666748 10.9966 0.666748Z" fill="#52656E"/>
<path fill-rule="evenodd" clip-rule="evenodd" d="M5.66325 0.666748C6.03144 0.666748 6.32992 0.965225 6.32992 1.33341V4.00008C6.32992 4.36827 6.03144 4.66675 5.66325 4.66675C5.29506 4.66675 4.99658 4.36827 4.99658 4.00008V1.33341C4.99658 0.965225 5.29506 0.666748 5.66325 0.666748Z" fill="#52656E"/>
<path fill-rule="evenodd" clip-rule="evenodd" d="M1.66333 6.66667C1.66333 6.29848 1.96181 6 2.33 6H14.33C14.6982 6 14.9967 6.29848 14.9967 6.66667C14.9967 7.03486 14.6982 7.33333 14.33 7.33333H2.33C1.96181 7.33333 1.66333 7.03486 1.66333 6.66667Z" fill="#52656E"/>
</svg>
