<svg width="34" height="34" viewBox="0 0 34 34" fill="none" xmlns="http://www.w3.org/2000/svg">
<path d="M5.67329 25.0954L6.07096 26.7042C6.57466 28.796 7.67486 29.8686 9.86199 29.8686H24.138C26.3384 29.8686 27.4253 28.8227 27.9423 26.7042L28.34 25.0954H5.67329ZM5.23587 23.2585H28.7906L31.2826 12.9344L30.1957 12.3043L24.085 16.8093C23.6343 17.1311 23.3294 17.0104 23.0775 16.6484L17.3247 7.85289L16.6885 7.82607L10.8826 16.6886C10.6573 17.0372 10.3922 17.1445 9.94151 16.8227L3.9501 12.3981L2.67759 12.7333L5.23587 23.2585ZM3.16803 15.616C4.91774 15.616 6.3228 14.1814 6.3228 12.3981C6.3228 10.6551 4.91774 9.20707 3.16803 9.20707C1.41833 9.20707 0 10.6417 0 12.3981C0 14.1814 1.43157 15.616 3.16803 15.616ZM17.0067 10.0384C18.7431 10.0384 20.1614 8.60372 20.1614 6.83388C20.1614 5.09086 18.7431 3.64282 17.0067 3.64282C15.2437 3.64282 13.8386 5.07747 13.8386 6.83388C13.8386 8.60372 15.2569 10.0384 17.0067 10.0384ZM30.8319 15.616C32.5685 15.616 34 14.1814 34 12.3981C34 10.6417 32.5817 9.20707 30.8319 9.20707C29.0956 9.20707 27.6772 10.6551 27.6772 12.3981C27.6772 14.1814 29.0956 15.616 30.8319 15.616Z" fill="#18C9F3"/>
</svg>
