<svg width="16" height="16" viewBox="0 0 16 16" fill="none" xmlns="http://www.w3.org/2000/svg">
<path d="M12.7824 8.6171V8.08C12.7824 7.09948 12.7824 6.60922 12.4823 6.30461C12.1821 6 11.699 6 10.7328 6L5.26718 6C4.30098 6 3.81788 6 3.51772 6.30461C3.21756 6.60922 3.21756 7.09948 3.21756 8.08L3.21756 8.6171C3.21756 8.86787 3.21756 8.99326 3.19563 9.11597C3.17371 9.23867 3.13033 9.35608 3.04356 9.59088L2.89875 9.98277C2.11245 12.1107 1.7193 13.1746 2.22875 13.9206C2.7382 14.6667 3.85789 14.6667 6.09727 14.6667H9.90273C12.1421 14.6667 13.2618 14.6667 13.7713 13.9206C14.2807 13.1746 13.8876 12.1107 13.1013 9.98277L12.9564 9.59088C12.8697 9.35609 12.8263 9.23867 12.8044 9.11597C12.7824 8.99326 12.7824 8.86787 12.7824 8.6171Z" stroke="white" stroke-width="1.5" stroke-linecap="round"/>
<path d="M10.6667 7.33337C10.6667 3.33337 9.24371 1.33337 8.00004 1.33337C6.75637 1.33337 5.33337 3.33337 5.33337 7.33337" stroke="white" stroke-width="1.5" stroke-linecap="round"/>
<path d="M7.99996 10.6667C8.83357 10.6667 9.96261 12.4186 8.90312 12.597C8.34848 12.6903 7.64733 12.6897 7.0968 12.597C6.03731 12.4186 7.16635 10.6667 7.99996 10.6667Z" stroke="white" stroke-width="1.5" stroke-linecap="round"/>
<path d="M3.71952 9.35704C3.36442 9.14378 2.90368 9.25876 2.69042 9.61386C2.47716 9.96895 2.59214 10.4297 2.94723 10.643L3.71952 9.35704ZM13.0528 10.643C13.4079 10.4297 13.5229 9.96895 13.3097 9.61386C13.0964 9.25876 12.6357 9.14378 12.2806 9.35704L13.0528 10.643ZM9.23501 10.5898C8.82437 10.6441 8.53553 11.0211 8.58985 11.4317C8.64418 11.8423 9.02111 12.1312 9.43174 12.0769L9.23501 10.5898ZM6.56834 12.0769C6.97898 12.1312 7.3559 11.8423 7.41023 11.4317C7.46455 11.0211 7.17571 10.6441 6.76507 10.5898L6.56834 12.0769ZM9.43174 12.0769C10.7989 11.896 11.8129 11.3876 13.0528 10.643L12.2806 9.35704C11.0948 10.0692 10.2936 10.4498 9.23501 10.5898L9.43174 12.0769ZM2.94723 10.643C4.1872 11.3876 5.20118 11.896 6.56834 12.0769L6.76507 10.5898C5.70646 10.4498 4.90532 10.0692 3.71952 9.35704L2.94723 10.643Z" fill="white"/>
</svg>
