<svg width="17" height="16" viewBox="0 0 17 16" fill="none" xmlns="http://www.w3.org/2000/svg">
<g clip-path="url(#clip0_4903_12192)">
<path fill-rule="evenodd" clip-rule="evenodd" d="M3.32527 3.66181C3.58562 3.40147 4.00773 3.40147 4.26808 3.66181L5.20141 4.59515C5.46176 4.8555 5.46176 5.27761 5.20141 5.53796C4.94106 5.79831 4.51895 5.79831 4.2586 5.53796L3.32527 4.60462C3.06492 4.34427 3.06492 3.92216 3.32527 3.66181Z" fill="#52656E"/>
<path fill-rule="evenodd" clip-rule="evenodd" d="M0.996582 8.66667C0.996582 8.29848 1.29506 8 1.66325 8H2.99658C3.36477 8 3.66325 8.29848 3.66325 8.66667C3.66325 9.03486 3.36477 9.33333 2.99658 9.33333H1.66325C1.29506 9.33333 0.996582 9.03486 0.996582 8.66667Z" fill="#52656E"/>
<path fill-rule="evenodd" clip-rule="evenodd" d="M12.9966 8.66667C12.9966 8.29848 13.2951 8 13.6632 8H14.9966C15.3648 8 15.6632 8.29848 15.6632 8.66667C15.6632 9.03486 15.3648 9.33333 14.9966 9.33333H13.6632C13.2951 9.33333 12.9966 9.03486 12.9966 8.66667Z" fill="#52656E"/>
<path fill-rule="evenodd" clip-rule="evenodd" d="M13.3347 3.66181C13.5951 3.92216 13.5951 4.34427 13.3347 4.60462L12.4014 5.53796C12.141 5.79831 11.7189 5.79831 11.4586 5.53796C11.1982 5.27761 11.1982 4.8555 11.4586 4.59515L12.3919 3.66181C12.6523 3.40147 13.0744 3.40147 13.3347 3.66181Z" fill="#52656E"/>
<path fill-rule="evenodd" clip-rule="evenodd" d="M0.996582 11.3334C0.996582 10.9652 1.29506 10.6667 1.66325 10.6667H14.9966C15.3648 10.6667 15.6632 10.9652 15.6632 11.3334C15.6632 11.7016 15.3648 12.0001 14.9966 12.0001H1.66325C1.29506 12.0001 0.996582 11.7016 0.996582 11.3334Z" fill="#52656E"/>
<path fill-rule="evenodd" clip-rule="evenodd" d="M0.996582 13.9999C0.996582 13.6317 1.29506 13.3333 1.66325 13.3333H14.9966C15.3648 13.3333 15.6632 13.6317 15.6632 13.9999C15.6632 14.3681 15.3648 14.6666 14.9966 14.6666H1.66325C1.29506 14.6666 0.996582 14.3681 0.996582 13.9999Z" fill="#52656E"/>
<path fill-rule="evenodd" clip-rule="evenodd" d="M5.97289 6.30956C6.59801 5.68444 7.44586 5.33325 8.32992 5.33325C9.21397 5.33325 10.0618 5.68444 10.6869 6.30956C11.3121 6.93468 11.6632 7.78253 11.6632 8.66658C11.6632 9.03477 11.3648 9.33325 10.9966 9.33325C10.6284 9.33325 10.3299 9.03477 10.3299 8.66658C10.3299 8.13615 10.1192 7.62744 9.74413 7.25237C9.36906 6.8773 8.86035 6.66659 8.32992 6.66659C7.79948 6.66659 7.29077 6.8773 6.9157 7.25237C6.54063 7.62744 6.32992 8.13615 6.32992 8.66658C6.32992 9.03477 6.03144 9.33325 5.66325 9.33325C5.29506 9.33325 4.99658 9.03477 4.99658 8.66658C4.99658 7.78253 5.34777 6.93468 5.97289 6.30956Z" fill="#52656E"/>
<path fill-rule="evenodd" clip-rule="evenodd" d="M8.33 1C8.69819 1 8.99666 1.29848 8.99666 1.66667V3.33333C8.99666 3.70152 8.69819 4 8.33 4C7.96181 4 7.66333 3.70152 7.66333 3.33333V1.66667C7.66333 1.29848 7.96181 1 8.33 1Z" fill="#52656E"/>
</g>
<defs>
<clipPath id="clip0_4903_12192">
<rect width="16" height="16" fill="white" transform="translate(0.329956)"/>
</clipPath>
</defs>
</svg>
