<svg width="34" height="34" viewBox="0 0 34 34" fill="none" xmlns="http://www.w3.org/2000/svg">
<path d="M17.1794 33.317C22.1884 33.317 26.2296 29.2758 26.2296 24.281C26.2296 19.2721 22.1884 15.2309 17.1794 15.2309C12.1847 15.2309 8.14341 19.2721 8.14341 24.281C8.14341 29.2758 12.1847 33.317 17.1794 33.317ZM14.6038 28.9342C14.0631 29.3326 13.4939 28.92 13.7073 28.2939L14.7319 25.2344L12.1136 23.3703C11.6155 23.0003 11.772 22.3031 12.4551 22.3031L15.671 22.3315L16.6529 19.2579C16.8521 18.6318 17.5351 18.6318 17.7344 19.2579L18.7162 22.3315L21.9321 22.3031C22.6152 22.3031 22.7575 23.0145 22.2737 23.3561L19.6554 25.2344L20.68 28.2939C20.8934 28.92 20.3242 29.3326 19.7835 28.9342L17.1936 27.0416L14.6038 28.9342ZM8.51339 17.5076C9.90793 15.743 11.829 14.4055 14.0346 13.7509L7.58845 2.16776L3.84598 7.87396C3.58984 8.24393 3.57561 8.6566 3.80329 9.02657L8.51339 17.5076ZM13.9919 8.8985H20.3811L24.7212 1.21436H9.65179L13.9919 8.8985ZM20.3384 13.7509C22.5584 14.4055 24.4652 15.743 25.8596 17.5076L30.5839 9.02657C30.7974 8.6566 30.7832 8.24393 30.5271 7.87396L26.7846 2.16776L20.3384 13.7509Z" fill="#18C9F3"/>
</svg>
